<?xml version="1.0" encoding="UTF-8"?>
<svg id="Layer_2" data-name="Layer 2" xmlns="http://www.w3.org/2000/svg" xmlns:xlink="http://www.w3.org/1999/xlink" viewBox="0 0 123.61 117.76">
  <defs>
    <style>
      .cls-1 {
        fill: #2a2a2a;
      }

      .cls-2 {
        fill: #4d7d80;
      }

      .cls-3 {
        fill: #efc5aa;
      }

      .cls-4 {
        stroke: #9e3838;
      }

      .cls-4, .cls-5 {
        stroke-miterlimit: 10;
        stroke-width: .97px;
      }

      .cls-4, .cls-5, .cls-6 {
        fill: none;
      }

      .cls-7 {
        fill: #fff;
      }

      .cls-8 {
        fill: #e06f6f;
      }

      .cls-9 {
        fill: #312a45;
      }

      .cls-5 {
        stroke: #612525;
      }

      .cls-10 {
        fill: #dea600;
      }

      .cls-11 {
        fill: #9e3838;
      }

      .cls-12 {
        clip-path: url(#clippath);
      }

      .cls-6 {
        stroke: #312a45;
        stroke-linecap: round;
        stroke-linejoin: round;
        stroke-width: 2.11px;
      }
    </style>
    <clipPath id="clippath">
      <ellipse class="cls-3" cx="61.8" cy="58.88" rx="61.8" ry="58.88"/>
    </clipPath>
  </defs>
  <g id="OBJECTS">
    <g>
      <ellipse class="cls-3" cx="61.8" cy="58.88" rx="61.8" ry="58.88"/>
      <g class="cls-12">
        <g>
          <path class="cls-9" d="M38,44.22c-1.54,6.87-5.39,7.3-6.34,13.73-.95,6.43,1.83,8.56-2.9,12.87-7.02,6.4-9.59,16.09-8.26,19.86,1.33,3.77,89.03,23.19,89.03,23.19,0,0,9.31-13,2.15-23.64-5.27-7.83-9.38-10.53-9.04-18.11.33-7.57,1.67-8.48-6.21-16.27-7.89-7.79-7.56-12.52-11-17.34,0,0-16.24-10.66-29.85-6.83-13.6,3.82-17.57,12.54-17.57,12.54Z"/>
          <path class="cls-2" d="M86.63,94.42s10.54,2.4,16.09,6.45c5.54,4.05,6.82,13,6.82,13,0,0-23.87,13.62-54.77,9.05-30.9-4.57-42.54-27.77-42.54-27.77,0,0,7.81-7.91,13.56-10.04,5.75-2.13,16.78-1.99,16.78-1.99l44.06,11.3Z"/>
          <path class="cls-10" d="M85.9,98.54c.4-1.37.64-2.75.73-4.13-6.35-2.13-12.8-4.08-19.43-5.93-7.78-2.17-16.25-3.95-24.64-5.38-.34.76-.65,1.54-.89,2.35-3.23,10.91,4.06,22.69,16.27,26.3,12.21,3.61,24.73-2.31,27.96-13.22Z"/>
          <path class="cls-8" d="M42.14,40.23l.28,16.95s-4.51,10.1,6.5,17.17c0,0-.4,11.22-.95,16.58-.56,5.36.85,12.78,12.18,15.15,11.33,2.36,18.3-7.45,20.96-13.46l-2.21-27.94s9.26-6.16,7.08-11.65c-1.81-4.56-6.7-1.07-6.7-1.07,0,0-13.84-8.41-14.26-18.77-3.39-4.94-8.01-12.99-22.88,7.05Z"/>
          <path class="cls-11" d="M73.8,72.32c.33-1.05-.95-1.83-1.75-1.07-5.8,5.48-15.35,8.85-23.13,3.11,0,0-.38,10.8-.92,16.27,3.52,1.1,24.42-13.94,25.8-18.31Z"/>
          <path class="cls-7" d="M82.12,66.36c-.94,1.34-2.79,1.67-4.13.73-1.34-.94-1.67-2.79-.73-4.13.94-1.34,2.79-1.67,4.13-.73,1.34.94,1.67,2.79.73,4.13Z"/>
          <path class="cls-9" d="M38.61,43.14s7.44-2.15,11.71-7.7c4.27-5.55,4.06-7.25,4.06-7.25,0,0,.88,8.54,11.75,11.24,6.75,1.68,20.18.48,20.18.48,0,0-1.27-11.53-12.46-17.92-11.19-6.39-19.47-.84-19.47-.84,0,0-16.94.1-15.76,22Z"/>
          <path class="cls-1" d="M51.43,50.01c-.08,1.43-.84,2.55-1.7,2.5-.86-.05-1.49-1.24-1.41-2.67.08-1.43.84-2.55,1.7-2.5.86.05,1.49,1.24,1.41,2.67Z"/>
          <path class="cls-1" d="M65.67,50.66c-.08,1.43-.84,2.55-1.7,2.5-.86-.05-1.49-1.24-1.41-2.67.08-1.43.84-2.55,1.7-2.5.86.05,1.49,1.24,1.41,2.67Z"/>
          <path class="cls-5" d="M54.52,48.02c.19,2.15-2.04,6.65-3.42,9.13-.36.65.17,1.43.91,1.34l4.36-.55"/>
          <path class="cls-5" d="M50.99,61.38s5.07,4.43,9.94-.64"/>
          <path class="cls-6" d="M45.32,45.48c1.61-3.18,5.79-2.24,7.19,0"/>
          <path class="cls-6" d="M58.97,44.94c1.61-3.18,5.79-2.24,7.19,0"/>
          <path class="cls-4" d="M77.18,57.56c.96-3.61,6.38-6.07,6.91-.75"/>
        </g>
      </g>
    </g>
  </g>
</svg>