<?xml version="1.0" encoding="UTF-8"?>
<svg id="Layer_2" data-name="Layer 2" xmlns="http://www.w3.org/2000/svg" xmlns:xlink="http://www.w3.org/1999/xlink" viewBox="0 0 123.61 117.76">
  <defs>
    <style>
      .cls-1 {
        fill: #fdc6aa;
      }

      .cls-2 {
        fill: #2a2a2a;
      }

      .cls-3 {
        fill: #4d7d80;
      }

      .cls-4 {
        stroke: #9e3838;
      }

      .cls-4, .cls-5, .cls-6 {
        fill: none;
      }

      .cls-4, .cls-6 {
        stroke-miterlimit: 10;
        stroke-width: .97px;
      }

      .cls-7 {
        fill: #8f3935;
      }

      .cls-8 {
        fill: #e06f6f;
      }

      .cls-9 {
        fill: #d1932a;
      }

      .cls-5 {
        stroke: #8f3935;
        stroke-linecap: round;
        stroke-linejoin: round;
        stroke-width: 2.11px;
      }

      .cls-6 {
        stroke: #612525;
      }

      .cls-10 {
        fill: #9e3838;
      }

      .cls-11 {
        clip-path: url(#clippath);
      }
    </style>
    <clipPath id="clippath">
      <ellipse class="cls-1" cx="61.8" cy="58.88" rx="61.8" ry="58.88"/>
    </clipPath>
  </defs>
  <g id="OBJECTS">
    <g>
      <ellipse class="cls-1" cx="61.8" cy="58.88" rx="61.8" ry="58.88"/>
      <g class="cls-11">
        <g>
          <path class="cls-3" d="M86.07,96.26s8.22.96,12.78,3.58c4.55,2.62,7.29,9.79,7.29,9.79,0,0-18.13,13.81-42.02,12.89-23.9-.92-40.25-19.29-40.25-19.29,0,0,3.79-6.84,10.39-9.87,4.27-1.96,17.34-2.05,17.34-2.05l34.47,4.96Z"/>
          <g>
            <path class="cls-9" d="M65.14,90.39c-6.4.16-12.77-.38-18.3,1.07-1.08,8.03,2.17,14.54,11.9,16.18,10.37,1.75,24.11-4.81,30.28-10.81-9.62-4.14-18-6.58-23.88-6.44Z"/>
            <g>
              <path class="cls-8" d="M43.99,41.05l2.5,17.32s-8.21,19.82,8.35,19.96l-3.4,16.49c-.4,1.94.42,3.93,2.08,5.02,1.56,1.02,4,2.07,7.71,2.56,6.03.79,13.19-2.57,16.82-4.57,1.46-.81,2.39-2.32,2.42-3.99l.68-35.45-9.21-22.84-27.96,5.52Z"/>
              <path class="cls-10" d="M54.84,78.33c5.8-.19,12.84-1.76,16.83-7.88,4.12,1.24,1.94,9.22-2.63,11.1-1.26.52-2.34,1.36-3.23,2.38-4.92,5.7-13.11,4.81-13.11,4.81l2.14-10.41Z"/>
              <path class="cls-2" d="M54.06,53.75c0,1.25-.61,2.26-1.36,2.26s-1.36-1.01-1.36-2.26.61-2.26,1.36-2.26,1.36,1.01,1.36,2.26Z"/>
              <path class="cls-2" d="M66.49,53.63c0,1.25-.61,2.26-1.36,2.26s-1.36-1.01-1.36-2.26.61-2.26,1.36-2.26,1.36,1.01,1.36,2.26Z"/>
              <path class="cls-6" d="M56.65,51.87c.27,1.87-1.46,5.89-2.54,8.11-.28.59.22,1.24.86,1.12l3.77-.69"/>
              <path class="cls-6" d="M53.1,64.56s6.61,1.88,12.03-3.48"/>
              <path class="cls-6" d="M53.59,68.46s3.55-1.39,6.12,0"/>
              <path class="cls-5" d="M58.74,49.33c1.18-2.78,6.33-5.22,8.97-.83"/>
              <path class="cls-5" d="M48.51,50.1c1.25-2.85,4.94-2.23,6.26-.35"/>
              <path class="cls-7" d="M76.84,54.59s-6.48-5.67-7.02-14.31c-4.32,7.02-15.66,1.35-15.66,1.35,0,0-7.02,4.59-11.61,0-5.67,2.97-11.48-3.64-8-9.2-7.79-8.35,5.08-28.88,20.45-15.11,15.39-5.29,19.42,9.45,19.42,9.45,0,0,15.12,2.97,13.23,13.77-1.89,10.8-6.48,17.83-6.48,17.83l-4.32-3.78Z"/>
              <path class="cls-8" d="M85.53,58.84c-1.34,3.02-4.38,4.6-6.79,3.54-2.41-1.07-3.28-4.38-1.95-7.4,1.34-3.02,4.38-4.6,6.79-3.54,2.41,1.07,3.28,4.38,1.95,7.4Z"/>
              <path class="cls-4" d="M77.98,57.56c.83-3.15,5.56-5.3,6.03-.65"/>
            </g>
          </g>
        </g>
      </g>
    </g>
  </g>
</svg>