<?xml version="1.0" encoding="UTF-8"?>
<svg id="Layer_2" data-name="Layer 2" xmlns="http://www.w3.org/2000/svg" xmlns:xlink="http://www.w3.org/1999/xlink" viewBox="0 0 123.61 117.76">
  <defs>
    <style>
      .cls-1 {
        fill: #333e67;
      }

      .cls-2 {
        fill: #2a2a2a;
      }

      .cls-3 {
        fill: #4d7d80;
      }

      .cls-4 {
        fill: #efc5aa;
      }

      .cls-5 {
        stroke: #9e3838;
      }

      .cls-5, .cls-6 {
        stroke-miterlimit: 10;
        stroke-width: .97px;
      }

      .cls-5, .cls-6, .cls-7 {
        fill: none;
      }

      .cls-8 {
        fill: #e06f6f;
      }

      .cls-9 {
        fill: #d1932a;
      }

      .cls-10 {
        fill: #312a45;
      }

      .cls-6 {
        stroke: #612525;
      }

      .cls-11 {
        fill: #9e3838;
      }

      .cls-12 {
        clip-path: url(#clippath);
      }

      .cls-7 {
        stroke: #312a45;
        stroke-linecap: round;
        stroke-linejoin: round;
        stroke-width: 2.11px;
      }
    </style>
    <clipPath id="clippath">
      <ellipse class="cls-4" cx="61.8" cy="58.88" rx="61.8" ry="58.88"/>
    </clipPath>
  </defs>
  <g id="OBJECTS">
    <g>
      <ellipse class="cls-4" cx="61.8" cy="58.88" rx="61.8" ry="58.88"/>
      <g class="cls-12">
        <g>
          <path class="cls-10" d="M87.26,35.37s5.99,17.55-5.54,28.04l-7.5-29.12,13.05,1.08Z"/>
          <path class="cls-3" d="M106.42,107.84s-16.6,12.64-38.98,12.92h0c-.99,0-2,0-3.02-.04-8.88-.35-16.72-3.09-23.06-6.41,0,0-.88,1.23-.89,1.22-10.72-5.61-17.4-10.77-17.4-10.77,0,0,4.88-10.17,11.48-13.2,4.27-1.96,17.34-2.05,17.34-2.05l34.47,4.95s8.22.96,12.78,3.58c4.56,2.63,7.29,9.79,7.29,9.79Z"/>
          <g>
            <path class="cls-8" d="M40.46,33.67l2.78,19.23s-9.11,22,9.26,22.16l-3.77,18.31c-.44,2.16.47,4.36,2.31,5.57,1.74,1.14,4.44,2.3,8.56,2.84,6.7.88,14.64-2.85,18.68-5.08,1.62-.9,2.65-2.58,2.69-4.43l.75-39.36-10.22-25.36-31.04,6.13Z"/>
            <path class="cls-11" d="M52.5,75.06c6.43-.21,14.26-1.96,18.68-8.75,4.58,1.37,2.15,10.23-2.92,12.33-1.39.57-2.6,1.51-3.58,2.65-5.46,6.33-14.56,5.34-14.56,5.34l2.38-11.56Z"/>
            <path class="cls-2" d="M51.63,47.76c0,1.39-.67,2.51-1.51,2.51s-1.51-1.12-1.51-2.51.67-2.51,1.51-2.51,1.51,1.12,1.51,2.51Z"/>
            <path class="cls-2" d="M65.43,47.63c0,1.39-.67,2.51-1.51,2.51s-1.51-1.12-1.51-2.51.67-2.51,1.51-2.51,1.51,1.12,1.51,2.51Z"/>
            <path class="cls-6" d="M54.51,45.68c.3,2.07-1.62,6.54-2.82,9.01-.32.65.24,1.38.95,1.25l4.18-.76"/>
            <path class="cls-6" d="M50.57,61.57s7.33,2.08,13.36-3.86"/>
            <path class="cls-6" d="M51.11,66.99s3.94-1.54,6.79,0"/>
            <path class="cls-7" d="M56.82,42.86c1.31-3.09,7.03-5.79,9.96-.93"/>
            <path class="cls-7" d="M45.48,43.71c1.39-3.17,5.48-2.47,6.95-.39"/>
            <path class="cls-8" d="M86.57,53.42c-1.48,3.35-4.86,5.11-7.54,3.93-2.68-1.19-3.64-4.86-2.16-8.22,1.48-3.35,4.86-5.11,7.54-3.93,2.68,1.19,3.64,4.86,2.16,8.22Z"/>
            <path class="cls-5" d="M78.19,52c.93-3.5,6.18-5.88,6.69-.73"/>
          </g>
          <path class="cls-1" d="M40.46,23.81s1.56-14.58,11.97-16.65c10.4-2.06,24.85,4.4,30.21,9.63,5.37,5.23,4.63,18.57,4.63,18.57l-46.81-1.7v-9.86Z"/>
          <path class="cls-3" d="M40.46,29.35s-19.59,2.31-21.24,4.51c-1.65,2.2,55.18,3.11,57.79,1.14s-22.51-7.03-36.54-5.65Z"/>
          <path class="cls-10" d="M52.42,56.56s-1.84.07-3.08,1.79c-1.24,1.72-1.16,2.68-1.16,2.68l18.29-2.68s-3.05-4.5-14.05-1.79Z"/>
          <path class="cls-9" d="M67.43,120.76h0c-.99,0-2,0-3.02-.04-8.88-.35-16.72-3.09-23.06-6.41t-.02-.02s8.64-11.67,10.91-14.7l13.05,2.32,2.15,18.86Z"/>
          <polygon class="cls-10" points="81.12 84.21 64.72 101.9 70.29 110.83 90.44 95.59 81.12 84.21"/>
          <polygon class="cls-10" points="50.57 84.21 52.67 99.85 43.61 104.02 43.61 90.61 50.57 84.21"/>
        </g>
      </g>
    </g>
  </g>
</svg>